<svg width="317" height="216" viewBox="0 0 317 216" fill="none" xmlns="http://www.w3.org/2000/svg">
    <g clip-path="url(#clip0_2016_282)">
        <path d="M97.2183 5.60864H302V100.423C302 101.023 301.762 101.599 301.337 102.024C300.912 102.448 300.335 102.687 299.734 102.687H99.4846C98.8835 102.687 98.3071 102.448 97.8821 102.024C97.457 101.599 97.2183 101.023 97.2183 100.423V5.60864Z" fill="#E6E6E6"/>
        <path d="M297.433 12.1545H101.785V97.2432H297.433V12.1545Z" fill="white"/>
        <path d="M99.3969 0H299.646C300.248 0 300.824 0.238542 301.249 0.663149C301.674 1.08776 301.913 1.66365 301.913 2.26413V8.69125H97.1306V2.26413C97.1306 1.66365 97.3694 1.08776 97.7944 0.663149C98.2194 0.238542 98.7959 0 99.3969 0Z" fill="#FCC737"/>
        <path d="M103.595 5.63079C104.486 5.63079 105.208 4.90956 105.208 4.01986C105.208 3.13017 104.486 2.40894 103.595 2.40894C102.705 2.40894 101.983 3.13017 101.983 4.01986C101.983 4.90956 102.705 5.63079 103.595 5.63079Z" fill="white"/>
        <path d="M109.716 5.63079C110.607 5.63079 111.329 4.90956 111.329 4.01986C111.329 3.13017 110.607 2.40894 109.716 2.40894C108.826 2.40894 108.104 3.13017 108.104 4.01986C108.104 4.90956 108.826 5.63079 109.716 5.63079Z" fill="white"/>
        <path d="M115.837 5.63079C116.728 5.63079 117.449 4.90956 117.449 4.01986C117.449 3.13017 116.728 2.40894 115.837 2.40894C114.946 2.40894 114.224 3.13017 114.224 4.01986C114.224 4.90956 114.946 5.63079 115.837 5.63079Z" fill="white"/>
        <path d="M275.329 73.5986V72.9549H279.159L279.184 73.5964H275.331L275.329 73.5986ZM271.5 73.5986H267.67V72.9549H271.5L271.5 73.5986ZM263.841 73.5986H260.011V72.9549H263.841V73.5986ZM256.182 73.5986H252.352V72.9549H256.182L256.182 73.5986ZM248.523 73.5986H244.693V72.9549H248.523V73.5986ZM240.863 73.5986H237.034V72.9549H240.863V73.5986ZM233.204 73.5986H229.375V72.9549H233.204L233.204 73.5986ZM225.545 73.5986H221.716V72.9549H225.545V73.5986ZM217.886 73.5986H214.483C214.272 73.5962 214.068 73.5271 213.9 73.4013L214.275 72.8779C214.335 72.9244 214.408 72.9509 214.483 72.9534H217.886V73.5986ZM280.679 69.9383H280.035V66.1108H280.679V69.9383ZM213.607 69.527H212.964V65.7002H213.606L213.607 69.527ZM280.679 62.2867H280.035V58.4591H280.679V62.2867ZM213.607 61.8753H212.964V58.0478H213.606L213.607 61.8753ZM280.679 54.635H280.035V50.8071H280.679V54.635ZM213.607 54.2237H212.964V50.3962H213.606L213.607 54.2237ZM280.679 46.9834H280.035V43.1559H280.679V46.9834ZM213.607 46.5721H212.964V42.7446H213.606L213.607 46.5721ZM280.679 39.3318H280.035V38.0352C280.035 36.9499 279.686 36.2103 279.363 35.9831L279.734 35.4571C280.307 35.8609 280.678 36.8729 280.678 38.0352L280.679 39.3318ZM213.607 38.9204H212.964V38.0355C212.964 36.4699 213.612 35.279 214.472 35.2654L214.482 35.9092C214.117 35.9148 213.609 36.7265 213.609 38.0355L213.607 38.9204ZM275.749 35.9092H271.919V35.2654H275.749V35.9092ZM268.09 35.9092H264.259V35.2654H268.089L268.09 35.9092ZM260.431 35.9092H256.601V35.2654H260.43L260.431 35.9092ZM252.772 35.9092H248.941V35.2654H252.771L252.772 35.9092ZM245.112 35.9092H241.282V35.2654H245.112L245.112 35.9092ZM237.453 35.9092H233.623V35.2654H237.453L237.453 35.9092ZM229.794 35.9092H225.964V35.2654H229.794L229.794 35.9092ZM222.135 35.9092H218.305V35.2654H222.134L222.135 35.9092Z" fill="#FCC737"/>
        <path d="M159.732 44.198H124.12C123.053 44.198 122.187 45.0624 122.187 46.1287C122.187 47.1951 123.053 48.0595 124.12 48.0595H159.732C160.8 48.0595 161.665 47.1951 161.665 46.1287C161.665 45.0624 160.8 44.198 159.732 44.198Z" fill="#FCC737"/>
        <path d="M181.217 52.4565H124.12C123.053 52.4565 122.187 53.321 122.187 54.3873C122.187 55.4536 123.053 56.318 124.12 56.318H181.217C182.284 56.318 183.149 55.4536 183.149 54.3873C183.149 53.321 182.284 52.4565 181.217 52.4565Z" fill="#E6E6E6"/>
        <path d="M169.937 60.2361H124.12C123.053 60.2361 122.187 61.1005 122.187 62.1668C122.187 63.2331 123.053 64.0976 124.12 64.0976H169.937C171.004 64.0976 171.87 63.2331 171.87 62.1668C171.87 61.1005 171.004 60.2361 169.937 60.2361Z" fill="#E6E6E6"/>
        <path d="M247.456 51.8081H246.638V57.9024H247.456V51.8081Z" fill="#FCC737"/>
        <path d="M250.391 54.5147L249.792 55.072L247.047 52.1218L244.303 55.072L243.704 54.5147L247.048 50.9226L250.391 54.5147Z" fill="#FCC737"/>
        <path d="M246.82 60.9658C245.527 60.9658 244.262 60.5826 243.186 59.8645C242.111 59.1465 241.272 58.1259 240.777 56.9318C240.282 55.7378 240.153 54.4239 240.405 53.1563C240.657 51.8887 241.28 50.7243 242.195 49.8104C243.11 48.8966 244.276 48.2742 245.544 48.022C246.813 47.7699 248.128 47.8993 249.324 48.3939C250.519 48.8885 251.54 49.7261 252.259 50.8007C252.978 51.8753 253.361 53.1387 253.361 54.4311C253.361 56.1642 252.672 57.8264 251.446 59.0518C250.219 60.2773 248.555 60.9658 246.82 60.9658ZM246.82 48.7131C245.688 48.713 244.582 49.0483 243.64 49.6766C242.699 50.3048 241.966 51.1978 241.532 52.2427C241.099 53.2875 240.986 54.4372 241.206 55.5465C241.427 56.6557 241.972 57.6746 242.773 58.4743C243.573 59.274 244.593 59.8187 245.703 60.0393C246.814 60.26 247.964 60.1468 249.01 59.714C250.056 59.2812 250.95 58.5483 251.579 57.608C252.208 56.6676 252.544 55.5621 252.544 54.4311C252.544 52.9147 251.941 51.4603 250.867 50.388C249.794 49.3157 248.338 48.7132 246.82 48.7131Z" fill="#FCC737"/>
        <path d="M156.442 86.2361L82.3635 92.6955C81.1169 92.8042 80.1947 93.9021 80.3037 95.1477L83.7724 134.789C83.8814 136.035 84.9803 136.956 86.2269 136.848L160.306 130.388C161.552 130.28 162.474 129.182 162.365 127.936L158.897 88.2947C158.788 87.0491 157.689 86.1274 156.442 86.2361Z" fill="#450D50"/>
        <path d="M156.202 86.9362L82.7207 93.3436C81.6819 93.4341 80.9134 94.349 81.0042 95.387L84.4208 134.432C84.5116 135.47 85.4274 136.238 86.4662 136.148L159.948 129.74C160.987 129.65 161.755 128.735 161.664 127.697L158.248 88.6517C158.157 87.6137 157.241 86.8456 156.202 86.9362Z" fill="#F2F2F2"/>
        <path d="M107.869 112.514C111.529 112.195 114.236 108.972 113.916 105.315C113.595 101.658 110.369 98.9519 106.71 99.2708C103.05 99.5896 100.343 102.813 100.664 106.47C100.984 110.127 104.21 112.833 107.869 112.514Z" fill="#3F3D56"/>
        <path d="M129.856 124.486L97.3503 127.317C97.3096 127.321 97.2686 127.321 97.2279 127.318L110.271 99.3682C110.35 99.1943 110.474 99.0445 110.631 98.9342C110.787 98.824 110.97 98.7571 111.16 98.7405C111.351 98.7239 111.542 98.7582 111.715 98.8398C111.888 98.9214 112.036 99.0475 112.145 99.2051L124.027 116.164L124.596 116.976L129.856 124.486Z" fill="#FCC737"/>
        <path d="M147.955 122.905L119.839 125.355L124.594 116.972L124.937 116.368L131.135 105.444C131.246 105.275 131.392 105.132 131.563 105.024C131.734 104.915 131.925 104.844 132.125 104.814C132.326 104.785 132.53 104.797 132.725 104.852C132.919 104.906 133.101 105.001 133.256 105.13C133.297 105.167 133.335 105.206 133.37 105.248L147.955 122.905Z" fill="#FCC737"/>
        <path d="M60.5712 42.2631C60.5712 42.2631 55.9361 52.0808 56.6769 55.0445C57.1108 56.846 56.9145 58.7416 56.1205 60.4162L47.5915 60.0456L39.6185 52.451C39.6185 52.451 51.6701 44.1163 50.929 40.0401C50.1879 35.9639 60.5712 42.2631 60.5712 42.2631Z" fill="#CCA0A7"/>
        <path d="M39.0626 57.8225L35.3545 80.7921C35.3545 80.7921 35.3545 101.539 36.4669 101.909C37.5793 102.28 42.4002 101.909 42.4002 101.909V78.5695L40.9164 58.1923L39.0626 57.8225Z" fill="#FCC737"/>
        <path opacity="0.1" d="M39.0626 57.8225L35.3545 80.7921C35.3545 80.7921 35.3545 101.539 36.4669 101.909C37.5793 102.28 42.4002 101.909 42.4002 101.909V78.5695L40.9164 58.1923L39.0626 57.8225Z" fill="#450D50"/>
        <path d="M16.8127 192.677L13.8461 204.161L9.39654 200.827L5.31714 191.565L10.5086 185.267L16.8127 192.677Z" fill="#CCA0A7"/>
        <path d="M5.3168 190.083C5.3168 190.083 10.1377 193.787 10.1377 197.492C10.1377 197.492 12.7334 201.568 15.7 201.197V208.977C15.7 208.977 24.9708 213.793 17.9252 214.904C10.8795 216.016 5.68699 207.124 5.68699 207.124C5.68699 207.124 -0.988129 196.381 0.124641 194.898C1.23741 193.415 5.3168 190.083 5.3168 190.083Z" fill="#450D50"/>
        <path d="M39.0898 100.158C39.0898 100.158 32.0154 107.837 35.3534 119.691C35.3534 119.691 39.0618 146.366 27.1945 156.368C15.3273 166.371 7.54089 188.229 7.54089 188.229L16.4412 196.38C16.4412 196.38 26.0825 174.522 36.0952 166.003C46.1079 157.484 47.2203 147.849 47.2203 147.849V114.136L49.0753 100.057L39.0898 100.158Z" fill="#450D50"/>
        <path opacity="0.1" d="M39.0898 100.158C39.0898 100.158 32.0154 107.837 35.3534 119.691C35.3534 119.691 39.0618 146.366 27.1945 156.368C15.3273 166.371 7.54089 188.229 7.54089 188.229L16.4412 196.38C16.4412 196.38 26.0825 174.522 36.0952 166.003C46.1079 157.484 47.2203 147.849 47.2203 147.849V114.136L49.0753 100.057L39.0898 100.158Z" fill="#6F6F6F"/>
        <path d="M48.3341 201.197L52.0422 205.273L50.5585 208.607L46.1082 210.089L38.3207 207.126L39.4331 202.68L48.3341 201.197Z" fill="#CCA0A7"/>
        <path d="M38.321 205.272C38.321 205.272 46.9018 209.718 49.0483 207.865C49.6732 207.342 50.1851 206.697 50.5528 205.97C50.9205 205.242 51.1364 204.448 51.1874 203.635C51.1874 203.635 55.4829 204.163 58.3441 206.012C61.2054 207.861 64.7242 208.506 66.9248 210.087C69.1254 211.668 69.0699 214.533 62.277 214.903C55.484 215.273 38.3229 214.532 38.3229 212.68L38.321 205.272Z" fill="#450D50"/>
        <path d="M62.4259 104.873C62.4259 104.873 67.2464 126.36 58.7178 150.813C58.7178 150.813 54.6384 164.522 52.7845 168.596C50.9307 172.671 49.0757 201.569 49.8168 202.68C49.8168 202.68 43.8835 207.496 38.6917 204.162C38.6917 204.162 39.0626 187.12 38.3207 185.638C37.5789 184.156 36.8371 171.19 41.2874 160.446C45.7377 149.702 42.0281 123.769 42.0281 123.769C42.0281 123.769 33.1316 110.431 39.8052 102.65L62.4259 104.873Z" fill="#450D50"/>
        <path d="M56.8627 44.8571C62.5974 44.8571 67.2463 40.2127 67.2463 34.4836C67.2463 28.7545 62.5974 24.1101 56.8627 24.1101C51.128 24.1101 46.4791 28.7545 46.4791 34.4836C46.4791 40.2127 51.128 44.8571 56.8627 44.8571Z" fill="#CCA0A7"/>
        <path d="M37.5796 102.278C37.5796 102.278 40.5462 106.724 42.7714 104.501C44.3401 102.934 54.3822 106.338 60.1761 108.484C62.6014 109.38 64.2812 110.058 64.2812 110.058C64.2812 110.058 64.4406 104.924 64.9116 98.4216C65.4532 90.9601 66.4024 81.6904 67.9896 76.3463C70.9563 66.3433 63.5393 62.2679 63.5393 62.2679C63.5393 62.2679 57.2347 54.8589 57.6045 53.7472C57.9743 52.6355 40.9171 47.0786 40.9171 47.0786C39.0633 47.4492 37.5796 64.1207 37.5796 64.1207C37.5796 64.1207 40.9171 77.458 42.7714 85.6085C44.6256 93.759 37.5796 102.278 37.5796 102.278Z" fill="#FCC737"/>
        <path d="M69.4714 102.65C69.4714 102.65 77.6302 110.801 81.7096 113.024C85.789 115.247 88.0138 122.656 84.6763 124.138C81.3387 125.62 73.9221 115.987 73.9221 115.987L63.1669 107.096L69.4714 102.65Z" fill="#CCA0A7"/>
        <path d="M67.9292 28.2866C68.8777 28.3708 69.4201 29.5644 69.1138 30.4655C68.8074 31.3666 67.9277 31.9557 67.0291 32.2704C66.1305 32.5851 65.1696 32.6934 64.2717 33.0055C63.377 33.3324 62.5468 33.8141 61.8192 34.4285C59.2563 36.5254 57.7398 39.7209 57.2552 42.9944C56.7705 46.268 57.2552 49.6234 58.1643 52.8057C58.6474 54.4917 59.4354 56.3396 61.0845 56.9381C59.2815 56.4933 57.5195 55.8963 55.8176 55.1536C54.5711 54.5668 53.4001 53.8238 52.1393 53.2668C50.2735 52.5063 48.3159 51.9934 46.3167 51.7411C44.9131 51.5223 43.429 51.3551 42.1108 51.8853C41.3022 52.261 40.5582 52.7622 39.9064 53.3702L35.6649 56.9302C35.5911 55.3825 35.5424 53.834 35.5188 52.2845C35.498 50.9378 35.5033 49.5521 36.0003 48.3004C36.4914 47.0642 37.4221 46.0567 38.045 44.8816C39.5868 41.9733 39.0844 38.4726 39.0557 35.1836C39.0263 31.7776 39.5747 28.3055 41.1529 25.2863C42.731 22.2671 45.4264 19.7392 48.7145 18.8335C53.1456 17.6139 57.8176 19.4275 61.8887 21.5542C62.8472 22.0097 63.7407 22.5906 64.5456 23.2818C65.4017 24.1557 66.129 25.1467 66.7058 26.2252L68.7232 29.601" fill="#450D50"/>
        <path opacity="0.1" d="M42.2872 66.7626C42.2872 66.7626 48.8875 92.6208 49.5821 94.417C50.0826 95.7065 55.9656 102.568 59.6318 106.18C61.9038 107.048 63.4774 107.705 63.4774 107.705C63.4774 107.705 63.6285 102.726 64.0682 96.4242C61.2406 93.1789 58.2667 90.1069 58.2667 90.1069C58.2667 90.1069 55.14 70.3539 55.4878 62.8109C55.8357 55.268 48.54 53.4736 48.54 53.4736C40.2048 54.5517 42.2872 66.7626 42.2872 66.7626Z" fill="#450D50"/>
        <path d="M49.4461 52.6362C49.4461 52.6362 57.2336 54.4887 56.863 62.2682C56.4925 70.0478 59.8297 90.4253 59.8297 90.4253C59.8297 90.4253 72.438 103.021 71.3256 104.504C70.2132 105.986 65.4464 108.899 64.3068 109.296C63.1672 109.693 51.2996 96.7238 50.5577 94.8721C49.8159 93.0204 42.7702 66.344 42.7702 66.344C42.7702 66.344 40.5466 53.7475 49.4461 52.6362Z" fill="#FCC737"/>
    </g>
    <path d="M240.984 82.1979L239.757 66.9475C239.641 66.622 239.445 66.3307 239.187 66.1003C238.929 65.87 238.617 65.7079 238.28 65.629C237.943 65.5501 237.592 65.5568 237.258 65.6486C236.924 65.7403 236.619 65.9142 236.37 66.1543C226.522 68.5665 222.548 73.6998 221.41 80.1467C216.684 79.1467 211.826 78.9284 207.029 79.5005C210.491 74.581 210.253 69.567 206.652 64.4673C206.55 64.1336 206.366 63.831 206.116 63.5875C205.866 63.344 205.559 63.1676 205.222 63.0747C204.886 62.9818 204.531 62.9754 204.191 63.0562C203.851 63.137 203.538 63.3023 203.279 63.5366C196.618 66.8978 191.959 71.0866 191.209 76.8912C182.844 81.3703 176.136 88.4074 172.068 96.9706C168.001 105.534 166.789 115.173 168.609 124.474C170.429 133.776 175.186 142.25 182.182 148.656C189.178 155.061 198.046 159.06 207.485 160.066C216.923 161.073 226.437 159.033 234.63 154.247C242.823 149.462 249.265 142.181 253.011 133.473C256.758 124.765 257.611 115.088 255.447 105.86C253.282 96.6323 248.214 88.3396 240.984 82.1979Z" fill="#FCC737"/>
    <path d="M246.53 144.086C282.529 139.475 302.779 198.101 244.704 201.367C241.141 205.271 213.212 208.535 189.544 203.146C168.299 203.995 144.148 176.251 173.93 138.409L246.53 144.086Z" fill="#FCC737"/>
    <path d="M210.592 174.337V203.995H224.48L235.499 173.796" fill="#FCC737"/>
    <path d="M260.203 193.993C260.126 193.884 260.071 193.769 260.005 193.657C259.413 193.679 258.821 193.701 258.229 193.723L260.203 193.993Z" fill="#FCC737"/>
    <path d="M314.924 176.857C310.49 169.782 299.643 167.816 293.002 172.884C290.005 175.171 287.985 178.477 285.425 181.243C281.118 185.865 275.374 188.901 269.123 189.856C264.772 190.508 260.17 190.154 256.151 191.943C252.255 193.677 249.315 198.629 251.436 202.212C266.393 201.662 281.351 201.112 296.308 200.561C300.611 200.403 305.067 200.207 308.915 198.277C316.384 194.531 319.357 183.931 314.924 176.857Z" fill="#FCC737"/>
    <path d="M208.785 156.363C202.641 156.42 196.552 155.206 190.901 152.8C179.101 147.686 173.693 139.056 173.468 138.692C173.395 138.57 173.372 138.423 173.406 138.285C173.44 138.146 173.527 138.026 173.648 137.952C173.77 137.877 173.916 137.853 174.056 137.886C174.195 137.918 174.315 138.004 174.391 138.125C178.666 144.187 184.553 148.934 191.387 151.832C202.012 156.419 220.158 158.717 246.258 143.618C246.32 143.582 246.388 143.559 246.458 143.549C246.529 143.54 246.6 143.544 246.669 143.563C246.738 143.581 246.802 143.612 246.859 143.656C246.916 143.699 246.963 143.753 246.999 143.814C247.034 143.876 247.058 143.943 247.067 144.014C247.076 144.084 247.072 144.156 247.053 144.225C247.035 144.293 247.003 144.358 246.96 144.414C246.917 144.47 246.863 144.518 246.801 144.553C231.48 153.417 218.83 156.363 208.785 156.363Z" fill="#E73879"/>
    <path d="M211.133 128.926C210.128 128.924 209.165 128.525 208.454 127.816C207.744 127.107 207.344 126.145 207.343 125.141C207.344 124.998 207.401 124.862 207.503 124.761C207.604 124.66 207.741 124.604 207.884 124.604C208.028 124.604 208.165 124.66 208.266 124.761C208.368 124.862 208.425 124.998 208.426 125.141C208.427 125.857 208.713 126.544 209.22 127.05C209.728 127.556 210.416 127.84 211.133 127.84C211.851 127.84 212.539 127.556 213.046 127.05C213.554 126.544 213.839 125.857 213.841 125.141C213.841 124.998 213.899 124.862 214 124.761C214.102 124.66 214.239 124.604 214.382 124.604C214.525 124.604 214.663 124.66 214.764 124.761C214.865 124.862 214.923 124.998 214.924 125.141C214.922 126.145 214.523 127.107 213.812 127.816C213.102 128.525 212.138 128.924 211.133 128.926Z" fill="#E73879"/>
    <path d="M211.404 120.047C213.796 120.047 215.736 119.302 215.736 118.384C215.736 117.465 213.796 116.72 211.404 116.72C209.012 116.72 207.072 117.465 207.072 118.384C207.072 119.302 209.012 120.047 211.404 120.047Z" fill="#450D50"/>
    <path d="M182.277 118.506C183.517 117.024 185.067 115.832 186.819 115.014C188.57 114.197 190.48 113.773 192.414 113.773C194.347 113.773 196.257 114.197 198.009 115.014C199.76 115.832 201.31 117.024 202.55 118.506C204.65 116.504 206.108 113.926 206.741 111.097C207.373 108.267 207.151 105.315 206.102 102.612C205.054 99.9084 203.226 97.5765 200.85 95.9105C198.474 94.2446 195.657 93.3195 192.754 93.2522C189.852 93.185 186.994 93.9786 184.543 95.5327C182.093 97.0868 180.158 99.3316 178.985 101.983C177.812 104.635 177.453 107.574 177.954 110.43C178.454 113.285 179.791 115.928 181.795 118.025C181.952 118.189 182.113 118.349 182.277 118.506Z" fill="white"/>
    <path d="M221.912 118.506C223.152 117.024 224.702 115.832 226.453 115.014C228.205 114.197 230.115 113.773 232.048 113.773C233.982 113.773 235.892 114.197 237.643 115.014C239.395 115.832 240.945 117.024 242.185 118.506C244.285 116.504 245.743 113.926 246.376 111.097C247.008 108.267 246.786 105.315 245.737 102.612C244.689 99.9084 242.861 97.5765 240.485 95.9105C238.109 94.2446 235.292 93.3195 232.389 93.2522C229.486 93.185 226.629 93.9786 224.178 95.5327C221.728 97.0867 219.793 99.3315 218.62 101.983C217.447 104.635 217.088 107.574 217.588 110.429C218.089 113.285 219.426 115.928 221.43 118.025C221.587 118.189 221.748 118.349 221.912 118.506Z" fill="white"/>
    <path d="M185.978 114.372C188.767 114.372 191.027 112.115 191.027 109.33C191.027 106.546 188.767 104.289 185.978 104.289C183.189 104.289 180.928 106.546 180.928 109.33C180.928 112.115 183.189 114.372 185.978 114.372Z" fill="#450D50"/>
    <path d="M225.611 114.372C228.4 114.372 230.661 112.115 230.661 109.33C230.661 106.546 228.4 104.289 225.611 104.289C222.822 104.289 220.562 106.546 220.562 109.33C220.562 112.115 222.822 114.372 225.611 114.372Z" fill="#450D50"/>
    <path d="M232.521 129.175C234.965 129.175 236.946 127.197 236.946 124.757C236.946 122.317 234.965 120.339 232.521 120.339C230.077 120.339 228.096 122.317 228.096 124.757C228.096 127.197 230.077 129.175 232.521 129.175Z" fill="#E73879"/>
    <path d="M192.534 129.175C194.978 129.175 196.959 127.197 196.959 124.757C196.959 122.317 194.978 120.339 192.534 120.339C190.09 120.339 188.109 122.317 188.109 124.757C188.109 127.197 190.09 129.175 192.534 129.175Z" fill="#E73879"/>
    <path d="M145.247 200.966C147.024 199.86 145.771 194.65 142.448 189.33C139.126 184.009 134.993 180.592 133.216 181.697C131.44 182.803 132.693 188.013 136.016 193.333C139.338 198.654 143.471 202.071 145.247 200.966Z" fill="#FCC737"/>
    <path d="M163.358 164.511L139.232 189.882L145.522 200.698L168.299 187.109" fill="#FCC737"/>
    <path d="M205.55 211.439C205.856 209.372 201.069 206.951 194.856 206.033C188.644 205.115 183.36 206.047 183.053 208.114C182.747 210.182 187.534 212.602 193.746 213.52C199.959 214.438 205.243 213.507 205.55 211.439Z" fill="#FCC737"/>
    <path d="M189.457 174.055L193.196 208.84L205.503 211.391L209.904 184.931" fill="#FCC737"/>
    <path d="M243.756 210.725C250 210.05 254.878 207.819 254.653 205.741C254.428 203.663 249.184 202.526 242.941 203.2C236.697 203.874 231.818 206.105 232.043 208.183C232.269 210.261 237.512 211.399 243.756 210.725Z" fill="#FCC737"/>
    <path d="M229.643 173.611L242.041 206.332L254.595 205.705L252.175 178.991" fill="#FCC737"/>
    <defs>
        <clipPath id="clip0_2016_282">
            <rect width="302" height="215" fill="white"/>
        </clipPath>
    </defs>
</svg>
